<svg width="242" height="36" viewBox="0 0 242 36" fill="none" xmlns="http://www.w3.org/2000/svg">
    <path d="M180.226 7.67285L188.004 28.3263H184.06L182.229 23.1964H174.092L172.333 28.3263H168.417L176.196 7.67285H180.226V7.67285ZM178.094 11.5023L175.039 20.2036H181.23L178.189 11.5023H178.094Z" fill="white" />
    <path d="M189.749 13.52H201.572V14.916L193.808 25.5583H201.615V28.3217H189.199V26.6675L196.849 16.2834H189.749V13.52Z" fill="white" />
    <path d="M216.45 13.52V28.3265H212.936V26.3806H212.879C212.42 27.0547 211.803 27.5806 211.028 27.9583C210.254 28.336 209.389 28.5273 208.428 28.5273C206.711 28.5273 205.401 28.0396 204.503 27.0643C203.604 26.089 203.154 24.5735 203.154 22.5224V13.52H206.683V22.1065C206.683 23.3543 206.931 24.2914 207.424 24.9225C207.916 25.5535 208.667 25.8643 209.661 25.8643C210.651 25.8643 211.444 25.5153 212.037 24.8221C212.635 24.124 212.931 23.2157 212.931 22.0922V13.52H216.45Z" fill="white" />
    <path d="M226.948 13.2761C227.225 13.2761 227.474 13.2952 227.698 13.3335C227.918 13.3717 228.105 13.4195 228.258 13.4769V17.0052C228.076 16.8714 227.808 16.7423 227.459 16.6227C227.11 16.5032 226.685 16.4411 226.183 16.4411C225.327 16.4411 224.605 16.7996 224.017 17.5216C223.429 18.2435 223.133 19.3526 223.133 20.8491V28.3264H219.647V13.5199H223.133V15.853H223.19C223.506 15.0451 223.989 14.414 224.629 13.9598C225.27 13.5008 226.044 13.2761 226.948 13.2761Z" fill="white" />
    <path d="M240.804 24.597V27.4656C240.226 27.8289 239.475 28.1253 238.543 28.35C237.611 28.5747 236.616 28.6895 235.56 28.6895C233.303 28.6895 231.548 28.0202 230.296 26.6863C229.043 25.3524 228.417 23.4927 228.417 21.1118C228.417 18.8169 229.086 16.9285 230.425 15.4464C231.764 13.9643 233.461 13.2185 235.517 13.2185C237.563 13.2185 239.155 13.8448 240.293 15.0974C241.431 16.35 242 18.0807 242 20.2895V21.9723H231.859C232.012 23.4592 232.49 24.5014 233.294 25.0895C234.097 25.6823 235.129 25.9739 236.396 25.9739C237.233 25.9739 238.027 25.8449 238.787 25.5915C239.547 25.3429 240.216 25.0082 240.804 24.597ZM238.572 19.4241C238.572 18.2719 238.304 17.3922 237.773 16.7898C237.238 16.1827 236.487 15.8815 235.521 15.8815C234.685 15.8815 233.939 16.1827 233.274 16.7803C232.61 17.3827 232.17 18.2624 231.95 19.4241H238.572V19.4241Z" fill="white" />
    <path d="M67.7062 7.6732V28.3267H64.1205V12.1386H64.0631L57.6519 28.3267H55.2758L48.7069 12.1386H48.6638V28.3267H45.3555V7.6732H50.4949L56.428 22.9816H56.5141L62.7771 7.6732H67.7062V7.6732ZM70.7086 9.24133C70.7086 8.66284 70.9189 8.18475 71.3349 7.79272C71.7508 7.40547 72.248 7.20945 72.8265 7.20945C73.4432 7.20945 73.95 7.41025 74.3516 7.80706C74.7532 8.20388 74.9588 8.68197 74.9588 9.24133C74.9588 9.80548 74.7532 10.2836 74.3373 10.666C73.9261 11.0485 73.4193 11.2445 72.8265 11.2445C72.2337 11.2445 71.7317 11.0485 71.3205 10.6613C70.9094 10.274 70.7086 9.8007 70.7086 9.24133ZM74.5524 13.5202V28.3267H71.0671V13.5202H74.5524ZM85.123 25.7928C85.6393 25.7928 86.213 25.6733 86.8345 25.4342C87.4608 25.1952 88.0345 24.8796 88.5652 24.4828V27.7243C88.0106 28.0398 87.3748 28.2836 86.672 28.4462C85.9644 28.6087 85.1899 28.69 84.3437 28.69C82.1636 28.69 80.3947 28.0016 79.0273 26.6247C77.6648 25.2478 76.9811 23.4884 76.9811 21.3466C76.9811 18.9657 77.6791 17.0055 79.0703 15.4613C80.4616 13.9218 82.4361 13.1521 84.9891 13.1521C85.6441 13.1521 86.3038 13.2382 86.9684 13.4055C87.6377 13.5728 88.1636 13.7688 88.5604 13.9888V17.3306C88.0202 16.9386 87.4752 16.6326 86.911 16.4175C86.3517 16.2023 85.7732 16.0924 85.1899 16.0924C83.8178 16.0924 82.7086 16.537 81.8624 17.431C81.0162 18.325 80.5955 19.5298 80.5955 21.0454C80.5955 22.5418 81.0018 23.7083 81.8146 24.545C82.6273 25.3721 83.7317 25.7928 85.123 25.7928ZM98.4904 13.2764C98.7676 13.2764 99.0162 13.2955 99.241 13.3338C99.4609 13.372 99.6473 13.4198 99.8051 13.4772V17.0055C99.6234 16.8716 99.3557 16.7426 99.0067 16.623C98.6577 16.5035 98.2322 16.4414 97.7302 16.4414C96.8744 16.4414 96.1525 16.7999 95.5644 17.5218C94.9764 18.2438 94.68 19.3529 94.68 20.8493V28.3267H91.1947V13.5202H94.68V15.8533H94.7373C95.0529 15.0453 95.5358 14.4143 96.1764 13.9601C96.8123 13.5011 97.5868 13.2764 98.4904 13.2764ZM99.9868 21.141C99.9868 18.6932 100.68 16.7521 102.062 15.3226C103.443 13.8931 105.365 13.176 107.823 13.176C110.137 13.176 111.944 13.8645 113.244 15.2414C114.545 16.6183 115.195 18.478 115.195 20.8207C115.195 23.2207 114.502 25.133 113.12 26.553C111.738 27.9729 109.855 28.6852 107.474 28.6852C105.179 28.6852 103.357 28.0111 102.009 26.6629C100.661 25.3147 99.9868 23.4741 99.9868 21.141ZM103.62 21.0215C103.62 22.5657 103.969 23.7466 104.672 24.5641C105.375 25.3816 106.374 25.788 107.684 25.788C108.951 25.788 109.917 25.3816 110.581 24.5641C111.246 23.7466 111.576 22.537 111.576 20.9354C111.576 19.3434 111.231 18.1386 110.548 17.3258C109.859 16.5131 108.898 16.1067 107.66 16.1067C106.384 16.1067 105.394 16.5322 104.686 17.3832C103.969 18.2342 103.62 19.4485 103.62 21.0215ZM120.382 17.4071C120.382 17.9043 120.54 18.2963 120.855 18.5832C121.171 18.8653 121.874 19.2238 122.959 19.6541C124.35 20.2135 125.33 20.8398 125.89 21.533C126.454 22.231 126.731 23.0725 126.731 24.0621C126.731 25.4534 126.196 26.5721 125.125 27.4183C124.054 28.2645 122.605 28.6852 120.784 28.6852C120.167 28.6852 119.488 28.6087 118.747 28.4605C118.001 28.3123 117.37 28.1211 116.854 27.8916V24.4637C117.49 24.9035 118.169 25.2573 118.9 25.5155C119.631 25.7737 120.291 25.9028 120.889 25.9028C121.678 25.9028 122.256 25.7928 122.634 25.5729C123.007 25.353 123.193 24.98 123.193 24.4637C123.193 23.9856 122.997 23.5792 122.61 23.2446C122.223 22.9147 121.482 22.5322 120.401 22.0972C119.115 21.5617 118.202 20.9545 117.667 20.2804C117.126 19.6063 116.859 18.7553 116.859 17.7179C116.859 16.384 117.389 15.2844 118.451 14.4286C119.512 13.568 120.889 13.1378 122.577 13.1378C123.093 13.1378 123.676 13.1951 124.317 13.3099C124.962 13.4246 125.498 13.5728 125.928 13.7545V17.0677C125.469 16.7617 124.929 16.4987 124.317 16.274C123.7 16.0541 123.093 15.9441 122.486 15.9441C121.821 15.9441 121.305 16.0732 120.937 16.3314C120.569 16.6039 120.382 16.9577 120.382 17.4071ZM128.232 21.141C128.232 18.6932 128.926 16.7521 130.307 15.3226C131.689 13.8931 133.611 13.176 136.068 13.176C138.382 13.176 140.189 13.8645 141.49 15.2414C142.79 16.6183 143.44 18.478 143.44 20.8207C143.44 23.2207 142.747 25.133 141.365 26.553C139.984 27.9729 138.1 28.6852 135.719 28.6852C133.424 28.6852 131.603 28.0111 130.255 26.6629C128.906 25.3147 128.232 23.4741 128.232 21.141ZM131.861 21.0215C131.861 22.5657 132.21 23.7466 132.913 24.5641C133.616 25.3816 134.615 25.788 135.925 25.788C137.192 25.788 138.157 25.3816 138.822 24.5641C139.487 23.7466 139.816 22.537 139.816 20.9354C139.816 19.3434 139.472 18.1386 138.789 17.3258C138.1 16.5131 137.139 16.1067 135.901 16.1067C134.624 16.1067 133.635 16.5322 132.927 17.3832C132.215 18.2342 131.861 19.4485 131.861 21.0215ZM155.005 16.3696H149.813V28.3219H146.285V16.3696H143.808V13.5202H146.285V11.4597C146.285 9.90588 146.792 8.62938 147.805 7.63495C148.819 6.64052 150.114 6.14331 151.702 6.14331C152.122 6.14331 152.5 6.16722 152.825 6.21024C153.15 6.25327 153.442 6.3202 153.691 6.40626V9.41822C153.576 9.35129 153.375 9.27002 153.083 9.1744C152.797 9.07878 152.462 9.03097 152.089 9.03097C151.358 9.03097 150.798 9.26046 150.401 9.71464C150.009 10.1688 149.813 10.8429 149.813 11.737V13.525H155.005V10.1975L158.505 9.13137V13.525H162.033V16.3744H158.505V23.3019C158.505 24.2151 158.672 24.8557 159.002 25.2334C159.332 25.6063 159.853 25.7976 160.565 25.7976C160.766 25.7976 161.01 25.7498 161.292 25.6541C161.574 25.5585 161.823 25.4438 162.033 25.3099V28.1928C161.813 28.3171 161.445 28.4318 160.934 28.537C160.422 28.6422 159.915 28.6948 159.413 28.6948C157.946 28.6948 156.841 28.3028 156.11 27.5235C155.373 26.7394 155.01 25.5633 155.01 23.9856V16.3696H155.005Z" fill="white" />
    <path d="M16.9686 0.789062H0.608398V17.1493H16.9686V0.789062Z" fill="#F25022" />
    <path d="M35.0301 0.788574H18.6699V17.1488H35.0301V0.788574Z" fill="#7FBA00" />
    <path d="M16.9676 18.8506H0.607422V35.2108H16.9676V18.8506Z" fill="#00A4EF" />
    <path d="M35.0301 18.8506H18.6699V35.2108H35.0301V18.8506Z" fill="#FFB900" />
    <path d="M16.9686 0.789062H0.608398V17.1493H16.9686V0.789062Z" fill="#F25022" />
    <path d="M35.0301 0.788574H18.6699V17.1488H35.0301V0.788574Z" fill="#7FBA00" />
    <path d="M16.9676 18.8506H0.607422V35.2108H16.9676V18.8506Z" fill="#00A4EF" />
    <path d="M35.0301 18.8506H18.6699V35.2108H35.0301V18.8506Z" fill="#FFB900" />
</svg>